<?xml version="1.0" encoding="UTF-8"?>
<!DOCTYPE svg PUBLIC "-//W3C//DTD SVG 1.1//EN" "http://www.w3.org/Graphics/SVG/1.1/DTD/svg11.dtd">
<!-- Creator: CorelDRAW X8 -->
<svg xmlns="http://www.w3.org/2000/svg" xml:space="preserve" width="8.26772in" height="11.6929in" version="1.1" style="shape-rendering:geometricPrecision; text-rendering:geometricPrecision; image-rendering:optimizeQuality; fill-rule:evenodd; clip-rule:evenodd"
viewBox="0 0 8268 11693"
 xmlns:xlink="http://www.w3.org/1999/xlink">
 <defs>
  <style type="text/css">
   <![CDATA[
    .fil1 {fill:#FEFEFE;fill-rule:nonzero}
    .fil0 {fill:#232226;fill-rule:nonzero}
   ]]>
  </style>
 </defs>
 <g id="Layer_x0020_1">
  <metadata id="CorelCorpID_0Corel-Layer"/>
  <path class="fil0" d="M6588 3987c0,1524 -1236,2759 -2760,2759l0 0c-1524,0 -2759,-1235 -2759,-2759l0 0c0,-1524 1235,-2760 2759,-2760l0 0c1524,0 2760,1236 2760,2760l0 0z"/>
  <path class="fil1" d="M4646 3773l-46 369c-8,62 -60,108 -122,108l-598 0 0 1543c-63,6 -127,9 -191,9 -145,0 -286,-15 -422,-42l0 -1510 -460 0c-42,0 -77,-35 -77,-77l0 -462c0,-42 35,-77 77,-77l460 0 0 -693c0,-425 343,-769 767,-769l536 0c42,0 77,34 77,76l0 462c0,43 -35,77 -77,77l-383 0c-169,0 -307,138 -307,308l0 539 644 0c74,0 131,65 122,139z"/>
 </g>
</svg>
