<?xml version="1.0" encoding="UTF-8"?>
<!DOCTYPE svg PUBLIC "-//W3C//DTD SVG 1.1//EN" "http://www.w3.org/Graphics/SVG/1.1/DTD/svg11.dtd">
<!-- Creator: CorelDRAW X8 -->
<svg xmlns="http://www.w3.org/2000/svg" xml:space="preserve" width="8.26772in" height="11.6929in" version="1.1" style="shape-rendering:geometricPrecision; text-rendering:geometricPrecision; image-rendering:optimizeQuality; fill-rule:evenodd; clip-rule:evenodd"
viewBox="0 0 8268 11693"
 xmlns:xlink="http://www.w3.org/1999/xlink">
 <defs>
  <style type="text/css">
   <![CDATA[
    .fil1 {fill:#FEFEFE;fill-rule:nonzero}
    .fil0 {fill:#232226;fill-rule:nonzero}
   ]]>
  </style>
 </defs>
 <g id="Layer_x0020_1">
  <metadata id="CorelCorpID_0Corel-Layer"/>
  <path class="fil0" d="M7150 5327c0,1524 -1235,2759 -2759,2759l0 0c-1524,0 -2759,-1235 -2759,-2759l0 0c0,-1524 1235,-2760 2759,-2760l0 0c1524,0 2759,1236 2759,2760l0 0z"/>
  <path class="fil1" d="M5589 6025c0,276 -224,499 -499,499l-1398 0c-275,0 -499,-223 -499,-499l0 -1397c0,-276 224,-499 499,-499l1398 0c275,0 499,223 499,499l0 1397zm-449 -2146l-1498 0c-385,0 -698,313 -698,699l0 1497c0,386 313,699 698,699l1498 0c386,0 699,-313 699,-699l0 -1497c0,-386 -313,-699 -699,-699z"/>
  <path class="fil1" d="M4393 5826c-275,0 -500,-224 -500,-499 0,-276 225,-500 500,-500 275,0 499,224 499,500 0,275 -224,499 -499,499zm0 -1248c-414,0 -749,335 -749,749 0,413 335,748 749,748 413,0 748,-335 748,-748 0,-414 -335,-749 -748,-749z"/>
  <path class="fil1" d="M5191 4678c-82,0 -150,-67 -150,-150 0,-83 68,-150 150,-150 83,0 150,67 150,150 0,83 -67,150 -150,150z"/>
 </g>
</svg>
